<?xml version="1.0" encoding="UTF-8"?>
<svg width="25px" height="20px" viewBox="0 0 25 20" version="1.1" xmlns="http://www.w3.org/2000/svg" xmlns:xlink="http://www.w3.org/1999/xlink">
    <!-- Generator: Sketch 56.2 (81672) - https://sketch.com -->
    <title>envelope</title>
    <desc>Created with Sketch.</desc>
    <g id="Desktop" stroke="none" stroke-width="1" fill="none" fill-rule="evenodd">
        <g id="Contact-Us" transform="translate(-691.000000, -752.000000)" fill="#009FD4" fill-rule="nonzero">
            <g id="email-us" transform="translate(536.000000, 744.000000)">
                <g id="Group" transform="translate(155.000000, 8.000000)">
                    <g id="envelope">
                        <path d="M2.36259118,5.96179783 C2.67397248,6.18153595 3.61259081,6.83415864 5.17849427,7.91932912 C6.74444584,9.00449959 7.94407213,9.84005295 8.77742125,10.4260373 C8.86897851,10.4902699 9.0634956,10.6298977 9.36106874,10.8451131 C9.65868999,11.0604728 9.90598601,11.2345023 10.1027644,11.3672497 C10.2996871,11.499949 10.5377456,11.6488147 10.8171805,11.8136063 C11.0965191,11.9782535 11.3598365,12.1020998 11.6070844,12.1840866 C11.8543804,12.266747 12.0832976,12.3076923 12.2938841,12.3076923 L12.3076923,12.3076923 L12.3215486,12.3076923 C12.5321351,12.3076923 12.7611485,12.2666989 13.0084446,12.1840866 C13.2555963,12.1020998 13.5191542,11.9781092 13.7982523,11.8136063 C14.0774947,11.6486223 14.3155532,11.4999009 14.5124759,11.3672497 C14.7093986,11.2345023 14.9565022,11.0604728 15.2542197,10.8451131 C15.5517447,10.6297052 15.7465023,10.4902699 15.8380596,10.4260373 C16.6804057,9.84005295 18.8234615,8.35182878 22.2665535,5.96150914 C22.9350225,5.49465585 23.4935074,4.93133334 23.9421525,4.27192652 C24.3911343,3.61280839 24.6153846,2.92135744 24.6153846,2.19795857 C24.6153846,1.5934502 24.3977737,1.07598064 23.9627444,0.645598005 C23.5277632,0.215119145 23.0125792,0 22.4175292,0 L2.19771113,0 C1.49262878,0 0.950020884,0.238069677 0.569983663,0.714209032 C0.189994554,1.19044462 0,1.78571504 0,2.49997218 C0,3.07691105 0.251914785,3.70210858 0.755503795,4.37517986 C1.25904469,5.04829926 1.7949169,5.57722003 2.36259118,5.96179783 Z" id="Path"></path>
                        <path d="M23.2415472,7.41649712 C20.2382054,9.56434582 17.9576978,11.2335787 16.4011312,12.42384 C15.8791644,12.8300661 15.4557309,13.1471777 15.1305421,13.3744121 C14.8053532,13.6017991 14.3728747,13.8340155 13.832481,14.0709595 C13.2922798,14.3082594 12.7888361,14.4265535 12.3217169,14.4265535 L12.3077164,14.4265535 L12.2939082,14.4265535 C11.8268853,14.4265535 11.3231529,14.3082594 10.7829517,14.0709595 C10.2427505,13.8340155 9.80998326,13.6017991 9.48489066,13.3744121 C9.15989428,13.1471777 8.73631647,12.8300661 8.21439778,12.42384 C6.9780644,11.4659984 4.70246428,9.79666384 1.3875012,7.41649712 C0.865390066,7.04905847 0.402937777,6.62788675 0,6.15384615 L0,17.6774807 C0,18.3164823 0.215108633,18.8629126 0.645566459,19.3176866 C1.07592806,19.772613 1.59342045,20 2.19785117,20 L22.4176778,20 C23.0219642,20 23.5394084,19.772613 23.9698182,19.3176866 C24.4003722,18.8627601 24.6153846,18.3165332 24.6153846,17.6774807 L24.6153846,6.15384615 C24.22154,6.61807551 23.7638027,7.03924723 23.2415472,7.41649712 Z" id="Path"></path>
                    </g>
                </g>
            </g>
        </g>
    </g>
</svg>