<svg xmlns="http://www.w3.org/2000/svg" viewBox="0 0 48.06 50.8"><defs><style>.cls-1{fill:#f6f8f3;}.cls-2{fill:#49879f;}.cls-3{fill:#f4b427;}</style></defs><g id="Capa_2" data-name="Capa 2"><g id="Capa_1-2" data-name="Capa 1"><path class="cls-1" d="M40.32,41c.2,0,.3-.2.5-.3-.2,0-.3.1-.5.3Zm-28.2.9a22,22,0,0,1-1.8-1.4,23.24,23.24,0,0,1-7-12.2,22.52,22.52,0,0,1,.2-10,19.78,19.78,0,0,1,1.8-4.8,24,24,0,0,1,4-5.6,20.89,20.89,0,0,1,2.2-2A26.1,26.1,0,0,1,14.22,4a24.91,24.91,0,0,1,4.7-2.1,23.92,23.92,0,0,1,7-1.2,22.6,22.6,0,0,1,2.6.1,24.74,24.74,0,0,1,5.3,1,8.8,8.8,0,0,1,1.5.5,6.12,6.12,0,0,0-1.2-.5,19.1,19.1,0,0,0-4.7-1.2,25.65,25.65,0,0,0-8.3.1,26.27,26.27,0,0,0-7.3,2.5A30.3,30.3,0,0,0,10,5.59a24.4,24.4,0,0,0-3.7,3.5,18.43,18.43,0,0,0-3,4.3A22.79,22.79,0,0,0,1,19a25.39,25.39,0,0,0-.9,5.4,26.51,26.51,0,0,0,1,8.4,29.14,29.14,0,0,0,2.3,5.5,14,14,0,0,0,1,1.6,23.48,23.48,0,0,0,1.9,2.5c.4.5.8.9,1.2,1.4a11,11,0,0,0,1.1,1c0,.1-.1.1-.1.2-.3.2-.7.4-1,.6a1.53,1.53,0,0,0-.7.5H7a24,24,0,0,0,3.8-1.2,20.8,20.8,0,0,0,3.8-2.2,23.42,23.42,0,0,0,4-3.7,18.72,18.72,0,0,0,2-2.9,20.9,20.9,0,0,0,1.6-2.9,18.61,18.61,0,0,1,1-2.5c.1-.2,0-.4-.2-.4a8,8,0,0,1-2.1-.5c-.2-.1-.3,0-.4.2-.1.4-.2.7-.3,1.1a14.27,14.27,0,0,1-.8,2.2,21,21,0,0,1-1.3,2.6,21.14,21.14,0,0,1-2.6,3.5,18.14,18.14,0,0,1-2.4,2.4C12.72,41.49,12.52,41.79,12.12,41.89Zm13.2,8.9a26.68,26.68,0,0,0,7.5-1.1,32.51,32.51,0,0,0,4.3-1.8,16.65,16.65,0,0,0,2.8-1.8,21.72,21.72,0,0,0,2.9-2.4,32,32,0,0,0,2.5-2.7,26.37,26.37,0,0,0,2.3-3.5,2.34,2.34,0,0,0,.3-1.8.68.68,0,0,0-.9-.6c-.2,0-.3.1-.5.2a3.45,3.45,0,0,0-1.2,1.2,16.38,16.38,0,0,1-2,2.6,12.45,12.45,0,0,1-4.7,3.1,7.07,7.07,0,0,1-4.3.5c-.1,0-.3,0-.3-.2a.32.32,0,0,1,.3-.3,16.27,16.27,0,0,1,3.7-1.3,2.09,2.09,0,0,0,1.3-.7.76.76,0,0,0,.2-.4c.1-.4-.1-.6-.5-.6s-.8.1-1.2.1a7.89,7.89,0,0,0-3,.5,18.73,18.73,0,0,1-3.4.8,5.18,5.18,0,0,0-3.3,1.6c-.6.6-1,1.2-1.5,1.8a6.11,6.11,0,0,1-2.1,1.8,7,7,0,0,1-4.3.2,18.08,18.08,0,0,1-5.4-2.2.64.64,0,0,0-.6,0,19.75,19.75,0,0,1-3.8,2c-.1,0-.2,0-.2.1s.1.1.2.2l.1.1a24.86,24.86,0,0,0,5.8,3.1A25.77,25.77,0,0,0,25.32,50.79Zm-1.2-10.6h.2a11.08,11.08,0,0,0,1.9-.9,27.54,27.54,0,0,0,3.8-2c.8-.5,1.6-.9,2.4-1.4a14.61,14.61,0,0,0,3.7-3.3,3.33,3.33,0,0,0,.9-3,3.52,3.52,0,0,0-1.4-2,6.39,6.39,0,0,0-1.9-.8,18.73,18.73,0,0,0-3.4-.8c-.8-.2-1.6-.3-2.4-.5a6.78,6.78,0,0,1-2.7-1.3,2.63,2.63,0,0,1-.5-3.5c.5-.7,1.1-1.4,1.6-2a39.19,39.19,0,0,0,2.5-3.2,1.63,1.63,0,0,0,.3-1.5,3,3,0,0,0-1.4-1.7,8.36,8.36,0,0,0-3.1-1.2c-1.1-.3-2.2-.5-3.3-.7a16.28,16.28,0,0,0-3.1-.3,32.05,32.05,0,0,0-7.6.4,6.11,6.11,0,0,0-1.3.3c1.3,0,2.5,0,3.8.1a33.06,33.06,0,0,1,5.4.6,10.69,10.69,0,0,1,3.3,1.1,4.67,4.67,0,0,1,2.4,2.2,2.4,2.4,0,0,1,.2,1.4,8.33,8.33,0,0,1-1.6,3.6,17.1,17.1,0,0,1-1.1,1.4c-.6.7-1.1,1.4-1.7,2.1a8.27,8.27,0,0,0-1.5,2.3,1.7,1.7,0,0,0,0,1.4,2.33,2.33,0,0,0,1.5,1.4,15,15,0,0,0,4.2.9c2.1.2,4.1.2,6.2.3a5.7,5.7,0,0,1,2.2.4c.9.4,1.4.9,1,2a4.05,4.05,0,0,1-.5.9,12,12,0,0,1-2.2,2.3,40.31,40.31,0,0,1-3.2,2.6c-.6.4-1.2.9-1.8,1.3A8.71,8.71,0,0,0,24.12,40.19Zm8-35a4,4,0,0,0-4,3.9,4,4,0,1,0,7.9.1A4,4,0,0,0,32.12,5.19Zm6.2,12.4a16.28,16.28,0,0,0-.3-3.1,5.64,5.64,0,0,0-.4-1.2.1.1,0,0,0-.1-.1c-.1,0-.1.1-.1.2v.7a10.89,10.89,0,0,1-.1,3.6,1.2,1.2,0,0,1-1.6,1,4.42,4.42,0,0,1-1.6-.6,19.54,19.54,0,0,1-4-3.1c-.2-.1-.3-.1-.3.1a.52.52,0,0,1-.2.4,14.31,14.31,0,0,1-1.1,1.5c-.1.1-.2.3,0,.4a14.8,14.8,0,0,1,1.3.8,11.4,11.4,0,0,0,1.9,1,19.23,19.23,0,0,0,2.5,1.2,4.09,4.09,0,0,0,2.2.3,2,2,0,0,0,1.6-1.2A3.81,3.81,0,0,0,38.32,17.59Zm-28.4-5.5a1.27,1.27,0,0,0,.6.1,18.41,18.41,0,0,1,3.3.3,11.72,11.72,0,0,1,3.2.9,2,2,0,0,1,1.2,2,6.19,6.19,0,0,1-.7,1.9c-.7,1.2-1.6,2.2-2.3,3.4a5.76,5.76,0,0,0-1,3.8,3.59,3.59,0,0,0,.7,1.8c.1-.1,0-.2,0-.4a5.7,5.7,0,0,1,0-2.6,8.51,8.51,0,0,1,1.7-3.1,20.28,20.28,0,0,1,1.3-1.8c.4-.5.8-1.1,1.2-1.7a4,4,0,0,0,.6-1.5,2.14,2.14,0,0,0-1.3-2.3,7.34,7.34,0,0,0-3.2-.9,28.41,28.41,0,0,0-4.1-.1A6,6,0,0,1,9.92,12.09ZM41,40.39a.52.52,0,0,0,.4-.2,10,10,0,0,0,1.1-1c.9-.9,1.6-2,2.6-2.9.1-.1.1-.1.1-.2s-.2,0-.3,0a5,5,0,0,0-1.5,1.4c-.3.4-.6.9-.9,1.3C41.92,39.39,41.52,39.89,41,40.39ZM20.92,17a.67.67,0,0,0,.6.7.65.65,0,0,0,.6-.6c0-.3-.3-.7-.6-.7S20.92,16.59,20.92,17Zm-3.6,7.3a.66.66,0,0,0-.6-.7.53.53,0,0,0-.6.6.67.67,0,0,0,.6.7A.58.58,0,0,0,17.32,24.29Zm1.1-3.3a.58.58,0,0,0-.6.6.53.53,0,0,0,.6.6.65.65,0,0,0,.6-.6A.53.53,0,0,0,18.42,21Zm2.2-1.8a.58.58,0,0,0-.6-.6.65.65,0,0,0-.6.6.6.6,0,0,0,1.2,0ZM21,14a.56.56,0,0,0-.5.6.47.47,0,0,0,.5.5.56.56,0,0,0,.5-.6C21.62,14.29,21.32,14,21,14Zm-4.3,13.4a.5.5,0,1,0-.5-.5A.47.47,0,0,0,16.72,27.39Zm1.4,1.6c0-.2-.1-.4-.3-.4a.27.27,0,0,0-.3.3c0,.2.1.4.3.4A.32.32,0,0,0,18.12,29Z"/><path class="cls-2" d="M25.32,50.79a24.59,24.59,0,0,1-8.9-1.6,24.86,24.86,0,0,1-5.8-3.1l-.1-.1c-.1-.1-.2-.1-.2-.2s.1-.1.2-.1a19.75,19.75,0,0,0,3.8-2c.2-.1.4-.2.6,0a21.15,21.15,0,0,0,5.4,2.2,7,7,0,0,0,4.3-.2,5.2,5.2,0,0,0,2.1-1.8,13,13,0,0,1,1.5-1.8,5.18,5.18,0,0,1,3.3-1.6,13,13,0,0,0,3.4-.8,9.93,9.93,0,0,1,3-.5c.4,0,.8-.1,1.2-.1s.5.2.5.6a.52.52,0,0,1-.2.4,2.39,2.39,0,0,1-1.3.7,16.27,16.27,0,0,0-3.7,1.3c-.1.1-.3.1-.3.3s.2.2.3.2a6.4,6.4,0,0,0,4.3-.5,12.45,12.45,0,0,0,4.7-3.1,25.6,25.6,0,0,0,2-2.6,3.45,3.45,0,0,1,1.2-1.2c.2-.1.3-.2.5-.2a.68.68,0,0,1,.9.6,2.67,2.67,0,0,1-.3,1.8,26.37,26.37,0,0,1-2.3,3.5,21.6,21.6,0,0,1-2.5,2.7A37,37,0,0,1,40,46c-.9.7-1.9,1.2-2.8,1.8a32.51,32.51,0,0,1-4.3,1.8A22,22,0,0,1,25.32,50.79Z"/><path class="cls-3" d="M24.12,40.19l1.8-1.2a20.28,20.28,0,0,0,1.8-1.3,40.31,40.31,0,0,0,3.2-2.6,12,12,0,0,0,2.2-2.3,4.05,4.05,0,0,0,.5-.9c.4-1-.1-1.6-1-2a5.38,5.38,0,0,0-2.2-.4c-2.1-.1-4.1-.1-6.2-.3a12.16,12.16,0,0,1-4.2-.9,2.92,2.92,0,0,1-1.5-1.4,2.23,2.23,0,0,1,0-1.4,5.74,5.74,0,0,1,1.5-2.3c.6-.7,1.1-1.4,1.7-2.1a13.44,13.44,0,0,0,1.1-1.4,7.85,7.85,0,0,0,1.6-3.6,3.18,3.18,0,0,0-.2-1.4,4.67,4.67,0,0,0-2.4-2.2,16,16,0,0,0-3.3-1.1,33.06,33.06,0,0,0-5.4-.6c-1.3-.1-2.5,0-3.8-.1a5,5,0,0,1,1.3-.3,27.75,27.75,0,0,1,7.6-.4c1,.1,2.1.1,3.1.3s2.2.4,3.3.7a16.59,16.59,0,0,1,3.1,1.2,3,3,0,0,1,1.4,1.7,2.06,2.06,0,0,1-.3,1.5,39.19,39.19,0,0,1-2.5,3.2,14,14,0,0,0-1.6,2,2.63,2.63,0,0,0,.5,3.5,6.78,6.78,0,0,0,2.7,1.3c.8.2,1.6.3,2.4.5,1.1.3,2.3.5,3.4.8a10.84,10.84,0,0,1,1.9.8,3.23,3.23,0,0,1,1.4,2,3.33,3.33,0,0,1-.9,3,14.61,14.61,0,0,1-3.7,3.3c-.8.5-1.6,1-2.4,1.4-1.2.7-2.5,1.4-3.8,2a11.08,11.08,0,0,1-1.9.9c0,.1-.1.1-.2.1Z"/><path class="cls-2" d="M8.52,44.49a11,11,0,0,0-1.1-1,17.41,17.41,0,0,1-1.2-1.4,15,15,0,0,1-1.9-2.5,14,14,0,0,0-1-1.6A26.63,26.63,0,0,1,1,32.49a26.17,26.17,0,0,1-1-8.4,24.38,24.38,0,0,1,.9-5.4,22.79,22.79,0,0,1,2.3-5.6,22,22,0,0,1,3-4.3,24.71,24.71,0,0,1,7.5-5.9A27.43,27.43,0,0,1,21,.39a25.72,25.72,0,0,1,8.3-.1A19.1,19.1,0,0,1,34,1.49c.4.2.8.3,1.2.5-.5-.2-1-.3-1.5-.5a23.64,23.64,0,0,0-5.3-1,22.6,22.6,0,0,0-2.6-.1,27.76,27.76,0,0,0-7,1.2,28.13,28.13,0,0,0-4.7,2.1,16.47,16.47,0,0,0-2.7,1.9,20.89,20.89,0,0,0-2.2,2,22.76,22.76,0,0,0-4,5.6A19.78,19.78,0,0,0,3.42,18a22.49,22.49,0,0,0-.2,10,23.72,23.72,0,0,0,3.2,7.7,26.68,26.68,0,0,0,3.8,4.5,12.38,12.38,0,0,0,1.8,1.4l-.3.3a18.39,18.39,0,0,0-2.2,1.7A1.47,1.47,0,0,1,8.52,44.49Z"/><path class="cls-3" d="M32.12,5.19A3.9,3.9,0,0,1,36,9.09a4,4,0,1,1-7.9-.1A4,4,0,0,1,32.12,5.19Z"/><path class="cls-3" d="M8.52,44.49a3.88,3.88,0,0,0,1.1-.6c.7-.5,1.5-1.1,2.2-1.7l.3-.3c.3-.1.5-.4.8-.6a18.14,18.14,0,0,0,2.4-2.4,22.7,22.7,0,0,0,2.6-3.5,21,21,0,0,0,1.3-2.6,19.45,19.45,0,0,0,.8-2.2c.1-.4.2-.7.3-1.1,0-.2.2-.3.4-.2a8,8,0,0,0,2.1.5c.3,0,.3.2.2.4-.3.8-.7,1.7-1,2.5a13.5,13.5,0,0,1-1.6,2.9,29.77,29.77,0,0,1-2,2.9,23.42,23.42,0,0,1-4,3.7,23.56,23.56,0,0,1-3.8,2.2,16.8,16.8,0,0,1-3.8,1.2h-.2c.2-.3.5-.3.7-.5a8.79,8.79,0,0,1,1-.6A.14.14,0,0,0,8.52,44.49Z"/><path class="cls-3" d="M38.32,17.59a3.4,3.4,0,0,1-.3,2,2,2,0,0,1-1.6,1.2,4.22,4.22,0,0,1-2.2-.3,11.51,11.51,0,0,1-2.5-1.2,17.38,17.38,0,0,1-1.9-1,9.13,9.13,0,0,0-1.3-.8c-.2-.1-.1-.3,0-.4a14.31,14.31,0,0,0,1.1-1.5.76.76,0,0,0,.2-.4c.1-.2.1-.2.3-.1a25,25,0,0,0,4,3.1,4.42,4.42,0,0,0,1.6.6,1.35,1.35,0,0,0,1.6-1,8.74,8.74,0,0,0,.1-3.6v-.7c0-.1,0-.1.1-.2a.1.1,0,0,1,.1.1,5.64,5.64,0,0,1,.4,1.2A15.26,15.26,0,0,1,38.32,17.59Z"/><path class="cls-3" d="M9.92,12.09c.4,0,.7-.1,1-.1a27.73,27.73,0,0,1,4.1.1,7.34,7.34,0,0,1,3.2.9,2.14,2.14,0,0,1,1.3,2.3,4.71,4.71,0,0,1-.6,1.5,6.57,6.57,0,0,1-1.2,1.7,20.28,20.28,0,0,0-1.3,1.8,10.52,10.52,0,0,0-1.7,3.1,5.7,5.7,0,0,0,0,2.6c0,.1.1.2,0,.4a4,4,0,0,1-.7-1.8,6.4,6.4,0,0,1,1-3.8c.7-1.2,1.7-2.2,2.3-3.4a6.19,6.19,0,0,0,.7-1.9,2,2,0,0,0-1.2-2,11.72,11.72,0,0,0-3.2-.9c-1.1-.2-2.2-.2-3.3-.3C10.32,12.19,10.12,12.29,9.92,12.09Z"/><path class="cls-2" d="M41,40.39c.5-.5,1-1.1,1.5-1.6a14.63,14.63,0,0,0,.9-1.3,5,5,0,0,1,1.5-1.4c.1,0,.2-.1.3,0s0,.2-.1.2a24.35,24.35,0,0,0-2.6,2.9,11,11,0,0,1-1.1,1A.76.76,0,0,1,41,40.39Z"/><path class="cls-2" d="M20.92,17a.58.58,0,0,1,.6-.6.67.67,0,0,1,.6.7.65.65,0,0,1-.6.6A.86.86,0,0,1,20.92,17Z"/><path class="cls-2" d="M17.32,24.29a.65.65,0,0,1-.6.6.67.67,0,0,1-.6-.7.58.58,0,0,1,.6-.6A.66.66,0,0,1,17.32,24.29Z"/><path class="cls-2" d="M18.42,21c.4,0,.6.3.6.7a.58.58,0,0,1-.6.6.65.65,0,0,1-.6-.6C17.82,21.19,18,21,18.42,21Z"/><path class="cls-2" d="M20.62,19.19a.53.53,0,0,1-.6.6.58.58,0,0,1-.6-.6.65.65,0,0,1,.6-.6C20.32,18.49,20.62,18.79,20.62,19.19Z"/><path class="cls-2" d="M21,14a.65.65,0,0,1,.6.6.63.63,0,0,1-.5.6.47.47,0,0,1-.5-.5C20.52,14.29,20.72,14,21,14Z"/><path class="cls-2" d="M16.72,27.39a.5.5,0,0,1,0-1,.54.54,0,0,1,.5.5A.47.47,0,0,1,16.72,27.39Z"/><path class="cls-2" d="M18.12,29a.27.27,0,0,1-.3.3c-.2,0-.3-.2-.3-.4a.27.27,0,0,1,.3-.3A.45.45,0,0,1,18.12,29Z"/><path class="cls-2" d="M40.32,41a.85.85,0,0,1,.5-.3,1.07,1.07,0,0,1-.5.3Z"/></g></g></svg>