<?xml version="1.0" encoding="utf-8"?>
<!-- Generator: Adobe Illustrator 25.0.0, SVG Export Plug-In . SVG Version: 6.00 Build 0)  -->
<svg version="1.1" id="Capa_1" xmlns="http://www.w3.org/2000/svg" xmlns:xlink="http://www.w3.org/1999/xlink" x="0px" y="0px"
	 viewBox="0 0 1920 1080" style="enable-background:new 0 0 1920 1080;" xml:space="preserve">
<style type="text/css">
	.st0{fill:#F6F8F3;}
	.st1{fill:#49879F;}
	.st2{fill:#F4B427;}
</style>
<g>
	<path class="st0" d="M789.3,510.7c0.2,0,0.3-0.2,0.5-0.3C789.6,510.4,789.5,510.5,789.3,510.7C789.3,510.7,789.3,510.7,789.3,510.7
		C789.3,510.7,789.3,510.7,789.3,510.7C789.3,510.7,789.3,510.7,789.3,510.7z M761.1,511.6c-0.6-0.4-1.2-0.9-1.8-1.4
		c-1.4-1.3-2.7-2.8-3.8-4.5c-1.5-2.4-2.6-4.9-3.2-7.7c-0.7-3.3-0.6-6.7,0.2-10c0.4-1.7,1-3.3,1.8-4.8c1-2,2.4-3.9,4-5.6
		c0.7-0.7,1.4-1.4,2.2-2c0.9-0.7,1.7-1.3,2.7-1.9c1.5-0.8,3-1.6,4.7-2.1c2.3-0.7,4.6-1.2,7-1.2c0.9,0,1.7,0,2.6,0.1
		c1.8,0.1,3.5,0.5,5.3,1c0.5,0.1,1,0.3,1.5,0.5c-0.4-0.2-0.8-0.4-1.2-0.5c-1.5-0.6-3.1-1-4.7-1.2c-2.8-0.4-5.6-0.4-8.3,0.1
		c-2.6,0.5-5,1.3-7.3,2.5c-1.3,0.7-2.6,1.5-3.8,2.4c-1.3,1-2.6,2.2-3.7,3.5c-1.2,1.3-2.2,2.7-3,4.3c-1,1.8-1.8,3.6-2.3,5.6
		c-0.5,1.8-0.8,3.6-0.9,5.4c-0.1,2.9,0.2,5.6,1,8.4c0.6,1.9,1.3,3.7,2.3,5.5c0.3,0.5,0.6,1.1,1,1.6c0.6,0.9,1.2,1.7,1.9,2.5
		c0.4,0.5,0.8,0.9,1.2,1.4c0.3,0.3,0.7,0.7,1.1,1c0,0.1-0.1,0.1-0.1,0.2c-0.3,0.2-0.7,0.4-1,0.6c-0.2,0.1-0.5,0.2-0.7,0.5
		c0.1,0,0.1,0,0.2,0c1.3-0.3,2.6-0.7,3.8-1.2c1.3-0.6,2.6-1.3,3.8-2.2c1.5-1.1,2.8-2.3,4-3.7c0.8-0.9,1.4-1.9,2-2.9
		c0.6-1,1.2-1.9,1.6-2.9c0.3-0.9,0.6-1.7,1-2.5c0.1-0.2,0-0.4-0.2-0.4c-0.7-0.1-1.4-0.2-2.1-0.5c-0.2-0.1-0.3,0-0.4,0.2
		c-0.1,0.4-0.2,0.7-0.3,1.1c-0.2,0.8-0.5,1.5-0.8,2.2c-0.4,0.9-0.8,1.8-1.3,2.6c-0.7,1.2-1.6,2.4-2.6,3.5c-0.8,0.9-1.5,1.7-2.4,2.4
		C761.7,511.2,761.5,511.5,761.1,511.6z M774.3,520.5c2.6,0,5.1-0.4,7.5-1.1c1.5-0.5,2.9-1.1,4.3-1.8c1-0.5,1.9-1.1,2.8-1.8
		c1-0.7,2-1.5,2.9-2.4c0.9-0.8,1.7-1.8,2.5-2.7c0.9-1.1,1.6-2.3,2.3-3.5c0.3-0.6,0.5-1.2,0.3-1.8c-0.1-0.5-0.4-0.7-0.9-0.6
		c-0.2,0-0.3,0.1-0.5,0.2c-0.5,0.3-0.9,0.7-1.2,1.2c-0.6,0.9-1.2,1.8-2,2.6c-1.3,1.4-2.9,2.4-4.7,3.1c-1.4,0.6-2.8,0.8-4.3,0.5
		c-0.1,0-0.3,0-0.3-0.2c0-0.2,0.2-0.3,0.3-0.3c1.2-0.6,2.4-1,3.7-1.3c0.5-0.1,1-0.3,1.3-0.7c0.1-0.1,0.2-0.3,0.2-0.4
		c0.1-0.4-0.1-0.6-0.5-0.6c-0.4,0-0.8,0.1-1.2,0.1c-1-0.1-2,0.2-3,0.5c-1.1,0.3-2.2,0.7-3.4,0.8c-1.3,0.1-2.4,0.7-3.3,1.6
		c-0.6,0.6-1,1.2-1.5,1.8c-0.6,0.7-1.2,1.4-2.1,1.8c-1.4,0.6-2.9,0.5-4.3,0.2c-1.9-0.4-3.7-1.2-5.4-2.2c-0.2-0.1-0.4-0.1-0.6,0
		c-1.2,0.8-2.5,1.5-3.8,2c-0.1,0-0.2,0-0.2,0.1s0.1,0.1,0.2,0.2c0,0,0.1,0.1,0.1,0.1c1.8,1.3,3.7,2.3,5.8,3.1
		C768.3,520,771.3,520.6,774.3,520.5z M773.1,509.9C773.2,509.9,773.2,509.9,773.1,509.9c0.1,0,0.1,0,0.2,0c0.7-0.2,1.3-0.6,1.9-0.9
		c1.3-0.6,2.6-1.2,3.8-2c0.8-0.5,1.6-0.9,2.4-1.4c1.4-0.9,2.7-2,3.7-3.3c0.7-0.9,1.2-1.8,0.9-3c-0.2-0.8-0.7-1.5-1.4-2
		c-0.6-0.4-1.2-0.6-1.9-0.8c-1.1-0.4-2.2-0.6-3.4-0.8c-0.8-0.2-1.6-0.3-2.4-0.5c-1-0.3-1.9-0.6-2.7-1.3c-1.1-0.9-1.2-2.3-0.5-3.5
		c0.5-0.7,1.1-1.4,1.6-2c0.9-1,1.7-2.1,2.5-3.2c0.3-0.5,0.5-0.9,0.3-1.5c-0.2-0.8-0.8-1.3-1.4-1.7c-0.9-0.6-2-1-3.1-1.2
		c-1.1-0.3-2.2-0.5-3.3-0.7c-1-0.2-2.1-0.3-3.1-0.3c-2.6-0.2-5.1,0-7.6,0.4c-0.4,0.1-0.9,0.1-1.3,0.3c1.3,0,2.5,0,3.8,0.1
		c1.8,0.1,3.6,0.2,5.4,0.6c1.1,0.2,2.2,0.5,3.3,1.1c1,0.5,1.9,1.1,2.4,2.2c0.2,0.5,0.3,1,0.2,1.4c-0.2,1.3-0.8,2.5-1.6,3.6
		c-0.4,0.5-0.7,1-1.1,1.4c-0.6,0.7-1.1,1.4-1.7,2.1c-0.6,0.7-1.2,1.5-1.5,2.3c-0.2,0.5-0.2,1,0,1.4c0.2,0.7,0.8,1.1,1.5,1.4
		c1.3,0.6,2.8,0.7,4.2,0.9c2.1,0.2,4.1,0.2,6.2,0.3c0.7,0,1.5,0.1,2.2,0.4c0.9,0.4,1.4,0.9,1,2c-0.1,0.3-0.3,0.6-0.5,0.9
		c-0.6,0.9-1.4,1.6-2.2,2.3c-1,0.9-2.1,1.8-3.2,2.6c-0.6,0.4-1.2,0.9-1.8,1.3C774.3,509,773.7,509.5,773.1,509.9z M781.1,474.9
		c-2.1-0.1-4,1.8-4,3.9c0,2.2,1.8,3.9,3.8,4c2.3,0,4-1.7,4.1-3.9C785,476.8,783.3,474.9,781.1,474.9z M787.3,487.3
		c0-1-0.1-2.1-0.3-3.1c-0.1-0.4-0.2-0.8-0.4-1.2c0-0.1-0.1-0.1-0.1-0.1c-0.1,0-0.1,0.1-0.1,0.2c0,0.2,0,0.5,0,0.7
		c0.1,1.2,0.2,2.4-0.1,3.6c-0.2,0.8-0.7,1.2-1.6,1c-0.6-0.1-1.1-0.3-1.6-0.6c-1.5-0.8-2.7-1.9-4-3.1c-0.2-0.1-0.3-0.1-0.3,0.1
		c0,0.2-0.1,0.3-0.2,0.4c-0.3,0.5-0.7,1-1.1,1.5c-0.1,0.1-0.2,0.3,0,0.4c0.5,0.2,0.9,0.6,1.3,0.8c0.6,0.4,1.2,0.7,1.9,1
		c0.8,0.4,1.6,0.9,2.5,1.2c0.7,0.3,1.4,0.4,2.2,0.3c0.7-0.1,1.3-0.5,1.6-1.2C787.3,488.7,787.3,488,787.3,487.3z M758.9,481.8
		c0.2,0.1,0.4,0.1,0.6,0.1c1.1,0,2.2,0.1,3.3,0.3c1.1,0.2,2.2,0.4,3.2,0.9c0.8,0.4,1.3,1.2,1.2,2c-0.1,0.7-0.4,1.3-0.7,1.9
		c-0.7,1.2-1.6,2.2-2.3,3.4c-0.7,1.2-1.2,2.4-1,3.8c0.1,0.7,0.3,1.3,0.7,1.8c0.1-0.1,0-0.2,0-0.4c-0.2-0.8-0.2-1.7,0-2.6
		c0.3-1.2,1-2.2,1.7-3.1c0.4-0.6,0.8-1.2,1.3-1.8c0.4-0.5,0.8-1.1,1.2-1.7c0.3-0.5,0.5-0.9,0.6-1.5c0.1-1.2-0.4-1.8-1.3-2.3
		c-1-0.6-2.1-0.8-3.2-0.9c-1.4-0.1-2.8-0.2-4.1-0.1C759.6,481.7,759.3,481.8,758.9,481.8z M790,510.1c0.2,0,0.3-0.1,0.4-0.2
		c0.4-0.3,0.7-0.6,1.1-1c0.9-0.9,1.6-2,2.6-2.9c0.1-0.1,0.1-0.1,0.1-0.2c-0.1-0.1-0.2,0-0.3,0c-0.6,0.3-1.1,0.9-1.5,1.4
		c-0.3,0.4-0.6,0.9-0.9,1.3C790.9,509.1,790.5,509.6,790,510.1z M769.9,486.7c0,0.4,0.3,0.7,0.6,0.7c0.3,0,0.6-0.3,0.6-0.6
		c0-0.3-0.3-0.7-0.6-0.7C770.2,486,769.9,486.3,769.9,486.7z M766.3,494c0-0.4-0.2-0.6-0.6-0.7c-0.4,0-0.6,0.2-0.6,0.6
		c0,0.4,0.3,0.7,0.6,0.7C766.1,494.6,766.3,494.3,766.3,494z M767.4,490.7c-0.3,0-0.6,0.2-0.6,0.6c0,0.4,0.2,0.6,0.6,0.6
		c0.3,0,0.6-0.3,0.6-0.6C768,490.9,767.8,490.7,767.4,490.7z M769.6,488.9c0-0.4-0.3-0.6-0.6-0.6c-0.3,0-0.6,0.3-0.6,0.6
		c0,0.4,0.3,0.6,0.6,0.6C769.4,489.5,769.6,489.2,769.6,488.9z M770,483.7c-0.3,0-0.5,0.3-0.5,0.6c0,0.3,0.2,0.5,0.5,0.5
		c0.3,0,0.5-0.3,0.5-0.6C770.6,484,770.3,483.7,770,483.7z M765.7,497.1c0.3,0,0.5-0.2,0.5-0.5s-0.2-0.5-0.5-0.5
		c-0.3,0-0.5,0.2-0.5,0.5S765.4,497.1,765.7,497.1z M767.1,498.7c0-0.2-0.1-0.4-0.3-0.4s-0.3,0.1-0.3,0.3c0,0.2,0.1,0.4,0.3,0.4
		C766.9,499,767.1,498.9,767.1,498.7z"/>
	<path class="st1" d="M774.3,520.5c-3.1,0-6-0.5-8.9-1.6c-2.1-0.8-4-1.8-5.8-3.1c0,0-0.1-0.1-0.1-0.1c-0.1-0.1-0.2-0.1-0.2-0.2
		s0.1-0.1,0.2-0.1c1.3-0.5,2.6-1.2,3.8-2c0.2-0.1,0.4-0.2,0.6,0c1.7,1,3.5,1.7,5.4,2.2c1.4,0.3,2.9,0.4,4.3-0.2
		c0.9-0.4,1.5-1,2.1-1.8c0.5-0.6,0.9-1.3,1.5-1.8c0.9-0.9,2-1.5,3.3-1.6c1.2-0.1,2.3-0.4,3.4-0.8c1-0.3,1.9-0.5,3-0.5
		c0.4,0,0.8-0.1,1.2-0.1c0.4,0,0.5,0.2,0.5,0.6c0,0.2-0.1,0.3-0.2,0.4c-0.4,0.4-0.8,0.6-1.3,0.7c-1.3,0.3-2.5,0.7-3.7,1.3
		c-0.1,0.1-0.3,0.1-0.3,0.3c0,0.2,0.2,0.2,0.3,0.2c1.5,0.4,2.9,0.1,4.3-0.5c1.8-0.7,3.4-1.7,4.7-3.1c0.7-0.8,1.4-1.7,2-2.6
		c0.3-0.5,0.7-0.9,1.2-1.2c0.2-0.1,0.3-0.2,0.5-0.2c0.5-0.1,0.8,0.1,0.9,0.6c0.1,0.7,0,1.3-0.3,1.8c-0.7,1.2-1.4,2.4-2.3,3.5
		c-0.8,1-1.6,1.9-2.5,2.7c-0.9,0.8-1.8,1.6-2.9,2.4c-0.9,0.7-1.9,1.2-2.8,1.8c-1.4,0.7-2.8,1.3-4.3,1.8
		C779.4,520.2,776.9,520.5,774.3,520.5z"/>
	<path class="st2" d="M773.1,509.9c0.6-0.4,1.2-0.8,1.8-1.2c0.6-0.4,1.2-0.8,1.8-1.3c1.1-0.8,2.2-1.7,3.2-2.6
		c0.8-0.7,1.6-1.4,2.2-2.3c0.2-0.3,0.4-0.6,0.5-0.9c0.4-1-0.1-1.6-1-2c-0.7-0.3-1.4-0.4-2.2-0.4c-2.1-0.1-4.1-0.1-6.2-0.3
		c-1.4-0.1-2.9-0.3-4.2-0.9c-0.6-0.3-1.2-0.7-1.5-1.4c-0.2-0.5-0.1-1,0-1.4c0.3-0.9,0.8-1.6,1.5-2.3c0.6-0.7,1.1-1.4,1.7-2.1
		c0.4-0.5,0.8-0.9,1.1-1.4c0.8-1.1,1.4-2.2,1.6-3.6c0.1-0.5-0.1-1-0.2-1.4c-0.5-1.1-1.4-1.7-2.4-2.2c-1-0.5-2.1-0.8-3.3-1.1
		c-1.8-0.4-3.6-0.5-5.4-0.6c-1.3-0.1-2.5,0-3.8-0.1c0.4-0.2,0.8-0.2,1.3-0.3c2.5-0.5,5.1-0.6,7.6-0.4c1,0.1,2.1,0.1,3.1,0.3
		c1.1,0.2,2.2,0.4,3.3,0.7c1.1,0.3,2.1,0.7,3.1,1.2c0.6,0.4,1.2,0.9,1.4,1.7c0.1,0.5,0,1-0.3,1.5c-0.8,1.1-1.6,2.2-2.5,3.2
		c-0.6,0.7-1.2,1.3-1.6,2c-0.7,1.2-0.6,2.6,0.5,3.5c0.8,0.7,1.7,1,2.7,1.3c0.8,0.2,1.6,0.3,2.4,0.5c1.1,0.3,2.3,0.5,3.4,0.8
		c0.7,0.2,1.3,0.5,1.9,0.8c0.7,0.5,1.2,1.1,1.4,2c0.3,1.2-0.2,2.1-0.9,3c-1,1.3-2.3,2.4-3.7,3.3c-0.8,0.5-1.6,1-2.4,1.4
		c-1.2,0.7-2.5,1.4-3.8,2c-0.6,0.3-1.2,0.7-1.9,0.9C773.3,509.9,773.2,509.9,773.1,509.9C773.2,509.9,773.2,509.9,773.1,509.9z"/>
	<path class="st1" d="M757.5,514.2c-0.3-0.3-0.7-0.7-1.1-1c-0.4-0.4-0.8-0.9-1.2-1.4c-0.7-0.8-1.4-1.6-1.9-2.5
		c-0.3-0.5-0.6-1.1-1-1.6c-1-1.7-1.7-3.6-2.3-5.5c-0.8-2.7-1.1-5.5-1-8.4c0.1-1.8,0.4-3.7,0.9-5.4c0.5-2,1.3-3.8,2.3-5.6
		c0.8-1.6,1.9-3,3-4.3c1.1-1.3,2.3-2.4,3.7-3.5c1.2-0.9,2.4-1.7,3.8-2.4c2.3-1.2,4.8-2,7.3-2.5c2.8-0.5,5.6-0.5,8.3-0.1
		c1.6,0.2,3.2,0.6,4.7,1.2c0.4,0.2,0.8,0.3,1.2,0.5c-0.5-0.2-1-0.3-1.5-0.5c-1.7-0.5-3.5-0.9-5.3-1c-0.9-0.1-1.7-0.1-2.6-0.1
		c-2.4,0.1-4.7,0.5-7,1.2c-1.6,0.5-3.2,1.3-4.7,2.1c-1,0.5-1.8,1.2-2.7,1.9c-0.8,0.6-1.5,1.3-2.2,2c-1.6,1.6-2.9,3.5-4,5.6
		c-0.8,1.5-1.4,3.1-1.8,4.8c-0.8,3.3-0.9,6.6-0.2,10c0.6,2.8,1.7,5.3,3.2,7.7c1.1,1.6,2.3,3.1,3.8,4.5c0.6,0.5,1.1,1,1.8,1.4
		c-0.1,0.1-0.2,0.2-0.3,0.3c-0.8,0.5-1.5,1.1-2.2,1.7C758.3,513.8,757.9,514.1,757.5,514.2z"/>
	<path class="st2" d="M781.1,474.9c2.2,0,3.9,1.8,3.9,3.9c0,2.2-1.8,3.9-4.1,3.9c-2,0-3.8-1.8-3.8-4
		C777.1,476.7,779,474.8,781.1,474.9z"/>
	<path class="st2" d="M757.5,514.2c0.4-0.1,0.8-0.4,1.1-0.6c0.7-0.5,1.5-1.1,2.2-1.7c0.1-0.1,0.2-0.2,0.3-0.3
		c0.3-0.1,0.5-0.4,0.8-0.6c0.9-0.7,1.7-1.6,2.4-2.4c1-1.1,1.8-2.2,2.6-3.5c0.5-0.8,0.9-1.7,1.3-2.6c0.3-0.7,0.6-1.5,0.8-2.2
		c0.1-0.4,0.2-0.7,0.3-1.1c0-0.2,0.2-0.3,0.4-0.2c0.7,0.3,1.4,0.4,2.1,0.5c0.3,0,0.3,0.2,0.2,0.4c-0.3,0.8-0.7,1.7-1,2.5
		c-0.4,1.1-1,2-1.6,2.9c-0.6,1-1.3,2-2,2.9c-1.2,1.4-2.5,2.6-4,3.7c-1.2,0.8-2.4,1.6-3.8,2.2c-1.2,0.5-2.5,1-3.8,1.2
		c0,0-0.1,0-0.2,0c0.2-0.3,0.5-0.3,0.7-0.5c0.3-0.2,0.6-0.4,1-0.6C757.4,514.3,757.5,514.2,757.5,514.2z"/>
	<path class="st2" d="M787.3,487.3c0,0.7,0.1,1.4-0.3,2c-0.3,0.7-0.9,1.1-1.6,1.2c-0.7,0.1-1.5,0-2.2-0.3c-0.9-0.3-1.7-0.7-2.5-1.2
		c-0.6-0.3-1.3-0.6-1.9-1c-0.4-0.3-0.9-0.6-1.3-0.8c-0.2-0.1-0.1-0.3,0-0.4c0.4-0.5,0.8-1,1.1-1.5c0.1-0.1,0.2-0.3,0.2-0.4
		c0.1-0.2,0.1-0.2,0.3-0.1c1.2,1.1,2.5,2.2,4,3.1c0.5,0.3,1,0.5,1.6,0.6c0.8,0.1,1.3-0.2,1.6-1c0.3-1.2,0.3-2.4,0.1-3.6
		c0-0.2,0-0.5,0-0.7c0-0.1,0-0.1,0.1-0.2c0.1,0,0.1,0.1,0.1,0.1c0.2,0.4,0.3,0.8,0.4,1.2C787.2,485.3,787.3,486.3,787.3,487.3z"/>
	<path class="st2" d="M758.9,481.8c0.4,0,0.7-0.1,1-0.1c1.4-0.1,2.8,0,4.1,0.1c1.1,0.1,2.2,0.3,3.2,0.9c0.9,0.5,1.4,1.1,1.3,2.3
		c-0.1,0.5-0.3,1-0.6,1.5c-0.3,0.6-0.7,1.2-1.2,1.7c-0.5,0.6-0.9,1.2-1.3,1.8c-0.7,1-1.4,2-1.7,3.1c-0.2,0.8-0.2,1.7,0,2.6
		c0,0.1,0.1,0.2,0,0.4c-0.4-0.5-0.6-1.2-0.7-1.8c-0.1-1.4,0.3-2.6,1-3.8c0.7-1.2,1.7-2.2,2.3-3.4c0.3-0.6,0.6-1.2,0.7-1.9
		c0.1-0.8-0.4-1.6-1.2-2c-1-0.5-2.1-0.7-3.2-0.9c-1.1-0.2-2.2-0.2-3.3-0.3C759.3,481.9,759.1,482,758.9,481.8z"/>
	<path class="st1" d="M790,510.1c0.5-0.5,1-1.1,1.5-1.6c0.3-0.4,0.6-0.8,0.9-1.3c0.4-0.5,0.9-1.1,1.5-1.4c0.1,0,0.2-0.1,0.3,0
		c0.1,0.1,0,0.2-0.1,0.2c-1,0.8-1.7,1.9-2.6,2.9c-0.3,0.3-0.7,0.7-1.1,1C790.3,510,790.1,510.1,790,510.1z"/>
	<path class="st1" d="M769.9,486.7c0-0.4,0.3-0.6,0.6-0.6c0.3,0,0.6,0.3,0.6,0.7c0,0.3-0.3,0.6-0.6,0.6
		C770.2,487.3,769.9,487,769.9,486.7z"/>
	<path class="st1" d="M766.3,494c0,0.3-0.3,0.6-0.6,0.6c-0.3,0-0.6-0.3-0.6-0.7c0-0.4,0.3-0.6,0.6-0.6
		C766.1,493.4,766.3,493.6,766.3,494z"/>
	<path class="st1" d="M767.4,490.7c0.4,0,0.6,0.3,0.6,0.7c0,0.4-0.3,0.6-0.6,0.6c-0.3,0-0.6-0.3-0.6-0.6
		C766.8,490.9,767,490.7,767.4,490.7z"/>
	<path class="st1" d="M769.6,488.9c0,0.4-0.2,0.6-0.6,0.6s-0.6-0.3-0.6-0.6c0-0.3,0.3-0.6,0.6-0.6
		C769.3,488.2,769.6,488.5,769.6,488.9z"/>
	<path class="st1" d="M770,483.7c0.3,0,0.6,0.3,0.6,0.6c0,0.3-0.2,0.5-0.5,0.6c-0.3,0-0.5-0.2-0.5-0.5
		C769.5,484,769.7,483.7,770,483.7z"/>
	<path class="st1" d="M765.7,497.1c-0.3,0-0.5-0.2-0.5-0.5s0.2-0.5,0.5-0.5c0.3,0,0.5,0.3,0.5,0.5
		C766.2,496.9,766,497.1,765.7,497.1z"/>
	<path class="st1" d="M767.1,498.7c0,0.2-0.1,0.3-0.3,0.3s-0.3-0.2-0.3-0.4c0-0.2,0.1-0.3,0.3-0.3
		C766.9,498.3,767.1,498.5,767.1,498.7z"/>
	<path class="st1" d="M789.3,510.7c0.1-0.1,0.3-0.3,0.5-0.3C789.7,510.5,789.6,510.6,789.3,510.7L789.3,510.7z"/>
	<path class="st1" d="M789.3,510.7C789.3,510.7,789.3,510.7,789.3,510.7C789.3,510.7,789.3,510.7,789.3,510.7
		C789.3,510.7,789.3,510.7,789.3,510.7L789.3,510.7z"/>
</g>
</svg>
